/vscmnt/brussel_pixiu_data/_data_brussel/112/vsc11236/PredSimResults/SUBJ04mtu3D/worker5.mot
version=1
nRows=5
nColumns=50
inDegrees=yes
endheader
                time	         pelvis_tilt	         pelvis_list	     pelvis_rotation	           pelvis_tx	           pelvis_ty	           pelvis_tz	       hip_flexion_r	     hip_adduction_r	      hip_rotation_r	        knee_angle_r	       ankle_angle_r	         mtp_angle_r	       hip_flexion_l	     hip_adduction_l	      hip_rotation_l	        knee_angle_l	       ankle_angle_l	         mtp_angle_l	    lumbar_extension	      lumbar_bending	     lumbar_rotation	 ercspn_r/activation	 intobl_r/activation	 extobl_r/activation	    abd_r/activation	    add_r/activation	hamstrings_r/activation	bifemsh_r/activation	glut_max_r/activation	iliopsoas_r/activation	rect_fem_r/activation	  vasti_r/activation	gastroc_r/activation	 soleus_r/activation	tib_ant_r/activation	 ercspn_l/activation	 intobl_l/activation	 extobl_l/activation	    abd_l/activation	    add_l/activation	hamstrings_l/activation	bifemsh_l/activation	glut_max_l/activation	iliopsoas_l/activation	rect_fem_l/activation	  vasti_l/activation	gastroc_l/activation	 soleus_l/activation	tib_ant_l/activation	
          0.00000000	         -3.38986864	         -3.09016240	         10.68701513	          0.00000000	          0.88019472	         -0.00815414	         27.14116730	         -0.05744818	         -4.93055213	         -3.69559017	          4.45677317	          0.22385928	         -9.60995597	         -4.36188300	          5.79043432	        -13.07731467	         14.04127333	         24.99768843	        -14.00189772	         -0.40374344	         -1.50511942	          0.02369067	          0.22453165	          0.09742749	          0.01000002	          0.12660552	          0.02920003	          0.07051773	          0.02326621	          0.13141331	          0.04365891	          0.01472471	          0.01000000	          0.01000000	          0.31998362	          0.01000000	          0.00999999	          0.00999999	          0.03465881	          0.01000000	          0.01491461	          0.16403538	          0.02817374	          0.09973687	          0.01000001	          0.00999999	          0.28416982	          0.14771066	          0.00999999	
          0.01381086	         -3.41539276	         -3.06347859	         10.57247658	          0.01651495	          0.87799693	         -0.00788638	         26.79878580	          0.15823780	         -4.84837488	         -4.61449604	          4.03933941	          0.23210953	        -10.31397802	         -4.45829115	          5.23813528	        -13.83142923	         13.58971102	         26.49185673	        -13.61826519	          0.17444332	         -1.34686713	          0.01925787	          0.19266383	          0.07919769	          0.01000000	          0.12749196	          0.02876933	          0.05732308	          0.05323394	          0.10682436	          0.03548983	          0.01230179	          0.01513344	          0.01513345	          0.32013385	          0.01000001	          0.01000000	          0.01000000	          0.02817374	          0.01230182	          0.02552067	          0.13334249	          0.02290212	          0.11573031	          0.01000001	          0.01000000	          0.26323685	          0.13548665	          0.00999999	
          0.02762173	         -3.42599088	         -3.06763740	         10.40502994	          0.03337070	          0.87594405	         -0.00755863	         26.39372170	          0.40630546	         -4.77177499	         -5.72462142	          3.60485392	          0.22350406	        -10.84647452	         -4.56502786	          4.65037501	        -14.97060469	         13.05400393	         28.05090850	        -13.21100684	          0.81099126	         -1.18822736	          0.01565452	          0.15661424	          0.06437889	          0.04801737	          0.10547483	          0.03961747	          0.04659731	          0.07455956	          0.08683629	          0.02884928	          0.01000000	          0.01230180	          0.01230181	          0.35949755	          0.01000006	          0.00999999	          0.01000000	          0.02290211	          0.01000002	          0.02074549	          0.10839258	          0.01861687	          0.13677814	          0.01000001	          0.01000000	          0.22139757	          0.11013554	          0.00999999	
          0.04143259	         -3.42524430	         -3.09916971	         10.18317357	          0.05028326	          0.87430107	         -0.00715889	         25.98924763	          0.67923028	         -4.74040298	         -6.80739469	          3.02537320	          0.20588459	        -11.11204264	         -4.67385544	          4.04073624	        -16.60900701	         12.36107787	         29.65899320	        -12.81289917	          1.49705449	         -1.01986004	          0.01272546	          0.12730991	          0.05233286	          0.08920643	          0.11060484	          0.04170671	          0.03787844	          0.06646838	          0.07058822	          0.02345125	          0.03251189	          0.01000000	          0.01000001	          0.38942054	          0.02995802	          0.00999999	          0.01000000	          0.01861686	          0.01000018	          0.02946009	          0.08811109	          0.01513344	          0.15127560	          0.01000001	          0.01000001	          0.17997153	          0.08952792	          0.00999999	
          0.05524345	         -3.41516461	         -3.15776058	          9.91391096	          0.06706563	          0.87326270	         -0.00669504	         25.60601438	          0.97941573	         -4.74270982	         -7.93732789	          2.56525674	          0.18435708	        -11.05632064	         -4.78623522	          3.41170551	        -18.78986911	         11.41916408	         31.30225146	        -12.44320760	          2.22795214	         -0.84152527	          0.01034480	          0.10348876	          0.04254078	          0.11529005	          0.12152669	          0.04842028	          0.03079099	          0.06416313	          0.05738035	          0.01906326	          0.05575240	          0.01000000	          0.01000000	          0.40644307	          0.04751279	          0.00999999	          0.01000000	          0.01513343	          0.02932492	          0.03677859	          0.07162452	          0.01230180	          0.16331577	          0.01000000	          0.01000000	          0.14629678	          0.07277621	          0.00999999	
